<?xml version="1.0" standalone="no"?>
<!DOCTYPE svg PUBLIC "-//W3C//DTD SVG 20010904//EN"
 "http://www.w3.org/TR/2001/REC-SVG-20010904/DTD/svg10.dtd">
<svg version="1.0" xmlns="http://www.w3.org/2000/svg"
 width="1928.000000pt" height="444.000000pt" viewBox="0 0 1928.000000 444.000000"
 preserveAspectRatio="xMidYMid meet">

<g transform="translate(0.000000,444.000000) scale(0.100000,-0.100000)"
fill="#000000" stroke="none">
<path d="M1860 3499 c-47 -5 -116 -18 -155 -29 -38 -11 -96 -27 -127 -35 -31
-9 -94 -39 -140 -67 -46 -27 -99 -59 -118 -70 -19 -11 -61 -44 -95 -72 -33
-29 -75 -63 -93 -75 -31 -21 -144 -151 -188 -216 -104 -151 -182 -378 -207
-602 -39 -336 73 -714 286 -968 46 -55 101 -112 123 -126 21 -14 62 -46 89
-70 28 -25 100 -74 160 -110 311 -186 718 -218 1105 -86 31 11 73 32 189 99
30 17 106 74 221 165 101 81 191 196 270 346 61 116 68 137 115 317 55 217 45
490 -26 697 -10 31 -19 63 -19 71 0 19 -90 197 -138 271 -68 109 -153 191
-337 331 -198 150 -419 226 -684 234 -80 3 -184 1 -231 -5z m403 -85 c92 -19
260 -76 325 -111 106 -56 107 -57 103 -78 -2 -11 -8 -23 -15 -27 -6 -4 -113
-8 -238 -8 l-228 0 -17 34 c-45 85 -73 134 -97 166 -24 32 -25 35 -9 42 20 8
77 2 176 -18z m-942 -256 c7 -18 53 -105 103 -193 49 -88 88 -168 88 -177 0
-10 -14 -37 -29 -60 -16 -24 -62 -99 -103 -168 -40 -69 -80 -135 -87 -147 -13
-23 -15 -23 -248 -23 l-235 0 6 28 c32 137 61 218 114 324 34 68 74 139 89
158 15 19 37 52 50 72 25 43 208 218 227 218 6 0 18 -15 25 -32z m1385 -25
c17 -21 61 -93 98 -160 37 -68 72 -125 77 -128 24 -15 -5 -84 -103 -245 -82
-137 -103 -175 -109 -200 -3 -15 -11 -24 -20 -21 -8 2 -104 8 -214 15 l-200
11 -60 92 c-139 214 -175 275 -175 294 0 22 171 338 196 364 13 12 54 15 248
15 l233 0 29 -37z m-749 -361 c6 -4 27 -34 46 -67 49 -87 96 -164 129 -213 15
-23 28 -46 28 -51 0 -5 10 -21 22 -36 19 -25 20 -31 9 -62 -7 -19 -24 -51 -37
-71 -14 -19 -54 -87 -91 -151 -37 -64 -67 -117 -68 -119 -2 -2 -435 -5 -471
-3 -6 1 -18 17 -27 37 -10 20 -53 97 -95 172 -43 76 -81 144 -84 153 -4 11 18
57 59 125 68 114 114 193 146 257 l19 37 202 0 c110 0 206 -4 213 -8z m1165
-9 c68 -77 151 -450 133 -598 -3 -27 -6 -83 -7 -123 0 -40 -4 -68 -8 -62 -5 7
-69 15 -176 20 -93 5 -170 9 -170 9 -1 1 -30 49 -64 109 -35 59 -73 123 -85
142 -12 19 -32 52 -44 73 l-21 39 25 30 c14 16 25 33 25 38 0 12 167 300 186
321 24 27 183 28 206 2z m-1046 -938 c46 -77 93 -155 105 -172 23 -35 22 -81
-4 -111 -6 -8 -55 -90 -108 -181 l-97 -166 -220 -3 -220 -2 -11 27 c-10 27
-157 271 -194 323 -9 13 -17 35 -17 48 0 13 33 83 74 155 40 73 83 151 94 174
12 23 30 44 39 46 10 3 121 4 247 3 l230 -1 82 -140z m1151 131 c20 -20 -91
-322 -144 -392 -13 -17 -23 -35 -23 -39 0 -13 -104 -146 -148 -189 -22 -21
-45 -35 -51 -31 -6 3 -25 32 -42 63 -16 31 -43 77 -59 102 -45 69 -70 118 -70
136 0 9 15 42 34 73 18 31 61 106 95 168 l62 112 77 4 c93 5 262 1 269 -7z
m-1933 -414 c10 -20 56 -101 102 -179 46 -78 84 -145 84 -149 0 -4 7 -15 15
-24 14 -16 14 -21 -6 -54 -12 -20 -24 -35 -28 -34 -71 36 -260 178 -328 245
-29 29 -74 85 -101 126 -27 40 -57 79 -66 86 -9 7 -14 16 -12 20 2 3 76 5 163
3 l160 -3 17 -37z m1387 16 c38 -78 141 -245 164 -265 23 -20 24 -23 7 -23
-10 0 -27 -10 -38 -21 -59 -66 -212 -153 -369 -209 -96 -34 -301 -81 -321 -73
-11 4 -124 195 -124 209 0 3 8 18 19 32 10 15 40 68 66 117 96 181 128 240
138 253 7 9 65 12 226 12 l217 0 15 -32z"/>
<path d="M4271 2706 c-7 -9 -11 -42 -9 -88 l3 -73 235 -6 c129 -4 250 -10 268
-14 19 -4 49 -23 68 -42 32 -32 34 -37 34 -106 0 -67 -2 -75 -27 -99 -50 -46
-83 -51 -330 -56 -187 -3 -234 -7 -244 -18 -9 -11 -12 -81 -13 -245 -1 -269
-5 -259 100 -259 93 0 94 2 94 181 l0 149 133 0 c277 1 386 48 457 196 21 42
24 64 24 150 0 91 -3 106 -29 158 -51 101 -134 156 -263 175 -40 6 -166 11
-281 11 -167 0 -211 -3 -220 -14z"/>
<path d="M5360 2710 c-20 -12 -28 -293 -10 -316 9 -10 35 -14 96 -14 102 0 97
-9 92 184 -2 108 -6 139 -18 146 -19 13 -141 13 -160 0z"/>
<path d="M5810 2693 c-18 -23 -21 -37 -18 -82 7 -76 27 -91 124 -91 97 0 114
15 114 98 0 90 -13 102 -115 102 -79 0 -85 -1 -105 -27z"/>
<path d="M6142 2704 l-22 -15 0 -489 0 -490 23 -5 c12 -3 56 -5 97 -3 l75 3 3
408 2 407 139 0 c125 0 141 2 165 21 23 18 26 28 26 80 0 100 2 99 -263 99
-185 0 -226 -3 -245 -16z"/>
<path d="M7206 2711 c-3 -5 -25 -14 -50 -20 -53 -13 -157 -90 -198 -145 -80
-108 -116 -245 -105 -401 8 -106 27 -166 82 -252 79 -123 228 -212 318 -189
27 6 27 8 27 87 l0 80 -46 20 c-67 30 -123 86 -156 154 -25 54 -28 70 -28 168
0 100 2 111 30 160 38 68 95 123 145 140 22 8 45 24 52 37 15 30 5 129 -15
153 -16 18 -47 23 -56 8z"/>
<path d="M7389 2704 c-8 -10 -13 -43 -14 -86 l0 -69 54 -19 c71 -26 116 -61
157 -126 38 -60 65 -70 156 -62 74 8 77 21 29 132 -28 63 -131 164 -196 193
-51 22 -146 53 -163 53 -5 0 -16 -7 -23 -16z"/>
<path d="M8105 2704 c-13 -13 -15 -40 -13 -167 l3 -152 90 0 90 0 7 40 c4 22
7 86 7 141 1 88 -2 105 -20 128 -18 23 -27 26 -84 26 -45 0 -68 -5 -80 -16z"/>
<path d="M8747 2702 c-14 -16 -17 -45 -16 -200 0 -101 -3 -187 -6 -192 -4 -6
-126 -10 -315 -10 -271 0 -309 -2 -314 -16 -3 -9 -6 -139 -6 -290 l0 -274 26
-10 c38 -15 127 -12 150 4 17 13 19 29 21 203 l2 188 220 3 221 2 0 -187 c0
-104 5 -195 10 -203 7 -11 29 -15 90 -15 61 0 83 4 90 15 6 9 10 207 10 488 0
550 8 512 -103 512 -49 0 -68 -4 -80 -18z"/>
<path d="M9295 2706 c-16 -11 -20 -26 -20 -73 0 -100 -17 -93 236 -93 308 0
359 -17 359 -118 0 -55 -11 -75 -55 -101 -34 -20 -50 -21 -269 -21 -128 1
-240 -2 -248 -5 -19 -8 -28 -36 -28 -93 0 -32 6 -49 25 -67 l24 -25 243 0
c252 0 299 -6 336 -40 34 -32 31 -100 -7 -142 l-29 -33 -285 -5 c-157 -3 -289
-9 -294 -13 -4 -5 -8 -42 -8 -83 0 -55 4 -77 15 -85 9 -6 124 -8 300 -7 278 3
287 4 345 28 33 14 80 45 106 70 105 100 104 287 -2 395 l-39 41 25 34 c54 76
53 222 -1 315 -32 54 -105 101 -179 116 -33 6 -166 13 -295 16 -196 3 -238 2
-255 -11z"/>
<path d="M10768 2714 c-3 -3 -32 -12 -64 -21 -110 -28 -223 -121 -287 -233
-28 -50 -57 -181 -57 -257 0 -67 30 -185 65 -253 33 -65 129 -161 188 -188 23
-11 60 -27 82 -37 22 -10 58 -19 79 -19 36 -1 40 1 48 33 5 18 6 56 1 84 -8
49 -9 51 -68 81 -70 36 -143 105 -170 161 -15 32 -19 62 -20 150 0 103 2 113
28 157 38 63 105 121 159 137 24 7 49 18 56 23 16 14 17 159 0 176 -13 13 -31
16 -40 6z"/>
<path d="M10940 2702 c-19 -15 -23 -29 -24 -81 -1 -57 2 -65 27 -87 15 -13 36
-24 46 -24 38 0 108 -58 152 -126 l44 -69 -1 -100 c-1 -83 -5 -109 -25 -150
-32 -67 -85 -118 -168 -159 -69 -35 -69 -36 -75 -83 -3 -26 -2 -64 2 -83 8
-34 10 -35 53 -35 71 1 190 65 270 144 108 109 146 220 136 404 -7 147 -38
219 -133 313 -76 77 -108 98 -194 124 -30 10 -62 21 -71 24 -9 4 -25 -1 -39
-12z"/>
<path d="M12039 2715 c-3 -2 -34 -12 -70 -21 -135 -35 -267 -157 -314 -292
-92 -264 13 -539 249 -651 163 -78 186 -73 186 41 0 75 -2 78 -99 129 -116 61
-171 161 -171 311 0 67 3 80 35 134 43 72 93 118 154 140 74 28 81 38 81 114
0 52 -4 71 -18 83 -19 18 -26 20 -33 12z"/>
<path d="M12190 2694 c-6 -14 -10 -49 -10 -79 0 -64 16 -86 81 -110 92 -34
163 -120 189 -232 10 -44 9 -63 -6 -125 -29 -124 -74 -182 -178 -235 -82 -41
-86 -47 -86 -124 0 -48 5 -72 16 -83 8 -9 17 -16 18 -16 12 0 105 36 121 47
11 7 26 13 35 13 29 1 146 98 184 153 85 124 114 290 77 438 -35 133 -76 199
-168 269 -57 44 -111 71 -190 94 -68 21 -72 20 -83 -10z"/>
<path d="M12956 2705 c-13 -14 -16 -41 -16 -158 0 -78 4 -147 8 -153 9 -14
155 -24 174 -13 19 12 24 274 5 309 -11 23 -19 25 -84 28 -55 2 -74 -1 -87
-13z"/>
<path d="M13533 2700 c-18 -11 -68 -52 -110 -93 -43 -40 -159 -149 -258 -241
-99 -93 -190 -180 -202 -193 -22 -23 -23 -30 -23 -233 0 -250 -3 -242 103
-238 96 4 97 7 97 214 l0 160 67 63 c77 74 57 83 163 -74 36 -53 101 -147 145
-210 44 -63 85 -122 91 -132 9 -14 27 -19 95 -21 143 -6 149 18 43 166 -33 45
-74 103 -92 129 -54 78 -123 177 -181 258 l-54 77 24 22 c312 296 308 292 309
332 0 29 -17 34 -108 34 -59 0 -85 -5 -109 -20z"/>
<path d="M14070 2705 c-13 -15 -17 -295 -5 -315 9 -14 158 -13 173 2 8 8 12
57 12 153 0 172 -2 175 -102 175 -46 0 -69 -4 -78 -15z"/>
<path d="M14613 2709 c-7 -7 -13 -21 -13 -31 0 -9 99 -154 219 -320 121 -167
273 -376 338 -466 64 -90 124 -169 132 -175 16 -14 175 -17 188 -4 4 5 9 223
11 484 3 560 10 523 -98 523 -63 0 -71 -2 -86 -24 -9 -15 -15 -43 -14 -68 5
-132 -1 -578 -9 -578 -4 0 -29 30 -54 68 -26 37 -61 87 -79 112 -128 174 -338
467 -341 475 -6 16 -179 19 -194 4z"/>
<path d="M16123 2696 c-139 -47 -250 -151 -309 -286 -25 -59 -28 -76 -28 -190
0 -169 31 -261 123 -363 34 -37 129 -107 147 -107 5 0 23 -7 39 -16 17 -9 51
-22 77 -29 66 -18 80 -2 76 91 l-3 69 -72 35 c-39 19 -82 44 -94 55 -60 55
-101 163 -102 269 0 63 4 80 33 135 39 73 107 137 162 152 63 16 78 39 78 112
0 49 -4 68 -18 80 -22 20 -30 20 -109 -7z"/>
<path d="M16350 2695 c-12 -31 -13 -134 -2 -152 4 -6 32 -21 63 -32 35 -13 79
-42 117 -76 l60 -55 75 0 c106 0 121 18 79 90 -45 75 -71 104 -126 144 -78 55
-93 63 -158 80 -29 9 -63 18 -75 22 -18 5 -25 1 -33 -21z"/>
<path d="M17328 2714 c-3 -3 -31 -12 -63 -20 -71 -19 -104 -39 -148 -92 -39
-47 -41 -52 -56 -132 -9 -56 -1 -132 19 -169 16 -30 98 -98 127 -106 15 -3 47
-16 71 -27 25 -11 61 -22 81 -25 20 -3 87 -21 150 -41 137 -44 177 -74 167
-125 -8 -43 -54 -83 -105 -92 -61 -10 -71 -25 -71 -105 0 -73 17 -107 49 -95
9 3 38 11 66 17 71 15 123 43 178 96 125 122 103 329 -46 415 -40 23 -125 52
-287 97 -113 32 -188 61 -202 77 -6 8 -12 31 -12 50 0 40 15 54 83 79 25 9 54
26 64 37 25 28 23 107 -4 141 -19 24 -48 34 -61 20z"/>
<path d="M17512 2708 c-7 -7 -12 -43 -12 -89 l0 -78 64 -30 c57 -28 66 -36 85
-81 l22 -50 84 0 c100 0 107 8 79 98 -40 128 -98 183 -241 226 -62 19 -66 19
-81 4z"/>
<path d="M5350 2280 c-13 -24 -10 -554 3 -566 13 -14 143 -17 166 -5 21 12 21
16 21 279 0 147 -3 277 -6 290 -6 21 -12 22 -90 22 -73 0 -85 -2 -94 -20z"/>
<path d="M14066 2292 c-2 -4 -6 -133 -7 -286 -2 -261 -1 -280 16 -292 22 -16
112 -18 149 -4 l26 10 0 270 c0 168 -4 279 -10 291 -9 16 -22 19 -90 19 -43 0
-81 -4 -84 -8z"/>
<path d="M16277 2272 c-20 -22 -24 -141 -5 -160 8 -8 58 -12 160 -12 113 0
150 -3 154 -13 6 -16 -38 -96 -68 -124 -26 -23 -117 -73 -134 -73 -6 0 -18 -8
-27 -18 -23 -25 -24 -144 -1 -166 8 -9 17 -16 18 -16 12 0 105 36 121 47 11 7
26 13 33 13 7 0 41 20 75 44 79 56 150 152 172 231 31 114 35 130 35 177 0 39
-5 50 -26 67 -25 20 -39 21 -259 21 -212 0 -233 -2 -248 -18z"/>
<path d="M17069 2058 c-34 -7 -51 -24 -45 -48 2 -8 7 -33 11 -55 22 -131 145
-236 294 -251 60 -7 61 -6 72 22 16 43 4 125 -22 147 -12 9 -30 17 -41 17 -37
0 -80 42 -109 106 l-28 62 -50 4 c-28 1 -65 0 -82 -4z"/>
<path d="M7609 2043 c-8 -10 -28 -37 -44 -61 -35 -53 -64 -74 -131 -96 -50
-16 -52 -18 -58 -62 -8 -62 3 -123 24 -134 18 -10 78 9 175 54 121 57 275 285
209 310 -9 3 -48 6 -88 6 -57 0 -76 -4 -87 -17z"/>
<path d="M14614 2036 c-17 -13 -19 -27 -19 -160 0 -102 4 -149 12 -157 17 -17
121 -23 156 -10 l27 11 0 154 c0 143 -1 156 -19 166 -29 15 -134 12 -157 -4z"/>
</g>
</svg>
