<?xml version="1.0" standalone="no"?>
<!DOCTYPE svg PUBLIC "-//W3C//DTD SVG 20010904//EN"
 "http://www.w3.org/TR/2001/REC-SVG-20010904/DTD/svg10.dtd">
<svg version="1.0" xmlns="http://www.w3.org/2000/svg"
 width="2288.000000pt" height="1512.000000pt" viewBox="0 0 2288.000000 1512.000000"
 preserveAspectRatio="xMidYMid meet">

<g transform="translate(0.000000,1512.000000) scale(0.100000,-0.100000)"
fill="#000000" stroke="none">
<path d="M11207 11745 c-257 -20 -392 -42 -612 -104 -375 -105 -779 -309
-1042 -525 -34 -28 -100 -82 -148 -121 -174 -140 -411 -416 -552 -643 -98
-158 -122 -202 -216 -402 -83 -176 -186 -517 -232 -770 -42 -227 -37 -709 9
-963 29 -160 35 -182 124 -457 53 -166 84 -241 162 -395 52 -104 105 -203 116
-220 12 -16 48 -70 80 -120 76 -118 151 -213 282 -359 103 -113 279 -281 332
-315 14 -8 54 -38 90 -66 182 -141 516 -322 740 -400 52 -18 106 -37 120 -43
61 -26 297 -87 420 -108 141 -24 394 -45 540 -45 124 1 360 19 470 36 52 9
111 18 130 21 76 12 296 77 465 139 113 41 358 159 490 237 33 19 78 46 100
59 108 63 339 245 446 350 120 118 397 456 450 549 14 25 36 63 48 85 13 22
29 47 36 55 19 21 165 327 165 345 0 7 4 16 9 20 5 3 13 20 17 38 3 17 20 65
36 105 86 216 148 536 168 867 10 177 -13 496 -51 709 -13 75 -90 343 -119
416 -12 30 -31 82 -42 115 -33 94 -142 316 -221 449 -75 127 -158 241 -267
367 -36 42 -94 111 -130 154 -106 126 -439 396 -620 502 -111 65 -396 210
-437 223 -15 5 -73 25 -128 45 -167 60 -368 114 -507 135 -112 17 -511 53
-543 49 -5 -1 -85 -7 -178 -14z m553 -201 c309 -30 698 -151 990 -307 63 -34
132 -70 152 -80 58 -29 65 -43 43 -83 -10 -18 -25 -36 -34 -38 -19 -5 -422
-14 -816 -18 l-280 -3 -61 110 c-33 61 -71 128 -84 150 -13 22 -33 58 -45 80
-12 22 -44 76 -70 120 -26 44 -50 83 -52 87 -4 7 28 5 257 -18z m-2022 -616
c18 -35 41 -76 51 -93 72 -116 431 -753 431 -766 0 -15 -23 -55 -214 -374 -43
-71 -121 -202 -173 -290 -52 -88 -112 -184 -132 -213 l-36 -54 -405 1 c-223 1
-464 4 -537 8 l-131 6 5 36 c21 154 78 394 113 476 5 11 32 76 61 145 29 69
75 168 102 220 27 52 57 109 65 125 14 27 46 75 160 240 19 28 47 64 62 80 15
17 47 57 70 90 58 79 148 173 235 243 38 31 103 85 144 120 41 34 79 62 85 62
7 0 26 -28 44 -62z m3177 34 c40 -29 98 -120 245 -382 51 -91 101 -179 111
-196 9 -17 37 -64 61 -105 25 -41 58 -97 73 -125 l28 -50 -53 -90 c-29 -49
-63 -107 -75 -129 -12 -22 -52 -92 -90 -155 -141 -241 -173 -296 -194 -332
-11 -21 -31 -55 -42 -75 -64 -113 -99 -171 -111 -179 -8 -5 -210 -7 -495 -4
l-483 5 -38 65 c-21 36 -69 115 -107 175 -37 61 -88 144 -112 185 -24 41 -89
149 -145 240 -144 236 -169 280 -164 289 8 14 268 461 364 626 57 99 108 190
113 203 8 20 15 22 91 23 46 1 218 5 383 9 457 10 629 10 640 2z m-1631 -929
c10 -20 32 -60 50 -87 18 -28 49 -80 70 -116 21 -36 47 -78 57 -95 127 -202
359 -603 359 -620 0 -11 -4 -25 -9 -30 -8 -9 -222 -380 -400 -695 l-77 -135
-554 0 -554 0 -29 50 c-16 28 -62 106 -102 175 -224 386 -263 453 -311 538
l-54 94 66 111 c36 62 109 184 161 272 53 88 118 198 145 245 27 47 67 114 89
150 22 36 53 91 69 123 l30 57 488 0 488 0 18 -37z m2673 -5 c7 -20 37 -91 68
-159 60 -131 79 -181 127 -329 35 -111 39 -128 72 -320 48 -284 54 -659 15
-899 l-12 -71 -405 2 -406 3 -51 90 c-28 50 -138 242 -243 428 l-192 338 24
42 c13 23 80 139 148 257 69 118 175 303 237 410 62 107 119 204 127 215 14
19 30 20 237 25 122 3 227 5 232 4 6 0 15 -17 22 -36z m-2603 -1880 c12 -21
46 -81 77 -135 31 -54 95 -168 144 -253 116 -206 203 -358 226 -396 l19 -31
-186 -324 c-103 -178 -218 -380 -257 -449 -38 -69 -79 -135 -90 -147 l-20 -23
-506 0 -506 1 -40 70 c-22 39 -50 87 -62 106 -13 18 -23 36 -23 39 0 2 -15 28
-34 57 -18 28 -100 165 -181 302 -81 138 -158 267 -171 287 -13 21 -24 47 -24
58 0 18 288 537 406 732 19 31 34 59 34 62 0 4 12 24 26 46 l27 40 560 -2 561
-3 20 -37z m2866 26 c0 -8 -5 -24 -11 -36 -6 -11 -26 -81 -45 -156 -52 -203
-65 -242 -144 -412 -106 -230 -122 -259 -253 -455 -98 -146 -145 -206 -261
-327 l-141 -148 -23 27 c-13 16 -96 147 -184 293 -88 146 -176 288 -194 317
-19 28 -34 61 -34 72 0 18 61 127 295 526 29 50 72 124 95 165 24 41 54 92 68
113 l25 37 403 0 c360 0 404 -2 404 -16z m-1349 -871 c4 -4 45 -71 91 -148
123 -206 238 -397 251 -419 7 -11 31 -49 55 -84 23 -35 42 -66 42 -70 -1 -7
-16 -19 -204 -154 -335 -242 -595 -366 -996 -476 -99 -27 -388 -73 -479 -76
-25 -1 -53 42 -247 382 l-54 94 266 456 c147 252 274 468 284 482 l18 25 483
-2 c265 -1 486 -6 490 -10z m-3230 -19 c10 -9 57 -82 105 -163 48 -80 97 -162
109 -181 13 -19 45 -73 72 -120 28 -47 93 -156 146 -242 53 -87 105 -176 117
-200 l20 -42 -23 -35 c-13 -20 -36 -55 -50 -78 -15 -24 -30 -43 -33 -43 -2 0
-17 8 -32 19 -52 36 -187 118 -227 139 -100 51 -391 292 -471 390 -26 31 -81
95 -123 141 -68 75 -116 138 -191 251 -92 140 -114 170 -121 170 -5 0 -9 3 -9
8 0 4 156 6 347 5 303 -3 349 -5 364 -19z"/>
<path d="M3501 4734 c-26 -34 -30 -137 -5 -172 15 -22 18 -22 266 -22 348 0
406 -17 444 -132 14 -44 14 -52 0 -96 -18 -53 -54 -94 -101 -113 -21 -9 -119
-15 -317 -19 -157 -3 -290 -9 -295 -13 -4 -5 -9 -131 -11 -281 -3 -247 -1
-274 14 -287 25 -20 191 -20 204 1 5 8 10 93 10 188 l0 172 146 0 c270 0 432
52 511 163 39 54 74 166 74 233 0 102 -56 237 -121 292 -45 38 -142 81 -205
93 -41 7 -179 14 -331 16 l-262 4 -21 -27z"/>
<path d="M4776 4739 l-26 -20 0 -164 0 -164 28 -21 c23 -19 37 -21 99 -18 41
2 78 9 85 16 14 14 25 279 14 337 -8 40 -38 55 -115 55 -44 0 -65 -5 -85 -21z"/>
<path d="M5299 4734 c-21 -23 -24 -35 -23 -101 0 -53 4 -77 15 -84 16 -10 218
-12 243 -3 13 5 16 22 16 86 0 70 -3 82 -25 103 -22 23 -32 25 -113 25 -82 0
-90 -2 -113 -26z"/>
<path d="M5682 4740 l-22 -21 0 -564 0 -564 30 -16 c44 -23 135 -20 171 6 l29
20 2 467 3 467 180 5 180 5 3 87 c4 134 17 128 -298 128 -244 0 -257 -1 -278
-20z"/>
<path d="M7126 4741 c-14 -15 -16 -35 -14 -101 3 -81 4 -84 33 -100 17 -9 49
-22 73 -28 53 -16 105 -61 139 -121 38 -67 46 -71 145 -71 86 0 89 1 100 26
11 24 8 36 -32 112 -25 47 -66 108 -91 136 -55 60 -159 119 -259 147 -84 23
-73 23 -94 0z"/>
<path d="M7975 4748 c-11 -6 -23 -16 -27 -22 -4 -6 -8 -83 -8 -172 0 -199 -1
-197 103 -202 70 -4 78 -2 101 21 26 26 26 28 26 182 0 152 -1 156 -25 180
-20 21 -33 25 -87 25 -35 0 -72 -6 -83 -12z"/>
<path d="M8713 4742 c-22 -17 -23 -23 -25 -237 l-3 -220 -356 -5 c-281 -4
-359 -8 -372 -19 -15 -12 -17 -48 -17 -337 0 -374 -10 -344 113 -344 120 0
117 -8 119 255 l3 220 249 3 c172 2 252 -1 256 -9 4 -6 8 -105 9 -221 1 -116
7 -220 12 -230 8 -15 23 -18 98 -18 70 0 91 3 102 16 11 13 14 117 17 527 2
280 1 530 -3 554 -10 67 -32 83 -112 83 -49 0 -74 -5 -90 -18z"/>
<path d="M9342 4737 c-18 -19 -22 -35 -22 -94 0 -107 -11 -103 283 -103 288 0
337 -7 385 -57 26 -28 32 -42 32 -79 0 -37 -6 -51 -34 -82 l-34 -37 -296 -3
-295 -3 -21 -26 c-18 -23 -20 -38 -18 -102 3 -71 5 -76 28 -82 14 -4 155 -7
313 -8 266 -1 291 -3 326 -21 57 -29 81 -64 81 -119 0 -26 -7 -56 -16 -69 -35
-50 -51 -52 -382 -52 l-309 0 -21 -23 c-18 -19 -22 -35 -22 -94 0 -52 4 -76
16 -87 13 -14 57 -16 322 -16 323 0 368 5 463 49 27 12 71 47 102 81 46 50 57
69 67 117 27 128 -1 232 -85 313 -40 38 -43 55 -17 84 32 36 56 117 56 186 0
119 -68 246 -157 292 -86 44 -192 57 -468 58 -254 0 -256 0 -277 -23z"/>
<path d="M10980 4731 c-178 -63 -310 -194 -367 -366 -23 -68 -27 -97 -27 -200
-1 -158 29 -257 107 -357 53 -68 163 -159 207 -173 14 -4 45 -17 70 -28 66
-30 130 -35 147 -12 19 27 17 144 -3 173 -8 12 -48 37 -88 56 -164 75 -234
211 -207 400 19 136 116 268 214 294 27 7 59 23 73 37 49 49 23 208 -34 204
-9 -1 -51 -13 -92 -28z"/>
<path d="M11260 4747 c-24 -12 -25 -17 -25 -101 0 -89 0 -89 31 -106 17 -10
45 -21 64 -25 38 -8 112 -73 147 -129 79 -124 85 -315 13 -431 -37 -60 -149
-145 -191 -145 -6 0 -24 -9 -40 -21 -28 -20 -29 -23 -29 -101 0 -124 21 -134
164 -77 28 12 60 24 71 29 36 14 143 100 176 141 96 122 120 189 126 359 4
118 3 130 -25 216 -37 115 -92 197 -180 268 -69 56 -124 85 -202 110 -25 7
-52 16 -60 20 -8 3 -26 0 -40 -7z"/>
<path d="M12465 4736 c-38 -12 -85 -30 -103 -40 -98 -51 -229 -185 -254 -258
-6 -18 -14 -37 -18 -43 -33 -45 -47 -312 -21 -405 47 -171 183 -314 362 -380
95 -35 134 -38 149 -11 11 22 14 139 4 166 -4 10 -36 30 -72 46 -85 39 -133
77 -180 148 -34 51 -40 69 -46 136 -10 115 8 213 54 284 42 65 109 126 148
135 15 4 44 14 64 24 l38 17 0 80 c0 57 -5 87 -16 103 -18 26 -20 26 -109 -2z"/>
<path d="M12710 4741 c-5 -11 -10 -58 -10 -104 l0 -84 38 -16 c20 -9 53 -22
72 -30 86 -34 162 -136 187 -249 19 -91 19 -105 -1 -197 -11 -54 -25 -86 -53
-123 -40 -52 -115 -107 -172 -127 -63 -21 -71 -35 -71 -124 0 -102 12 -119 73
-105 22 5 55 15 72 22 16 8 46 20 65 27 83 31 220 161 267 253 35 69 63 193
63 280 0 81 -30 218 -62 280 -65 128 -186 230 -335 282 -114 40 -119 40 -133
15z"/>
<path d="M13612 4748 c-31 -16 -34 -34 -30 -211 2 -110 7 -160 16 -169 7 -7
44 -14 85 -16 62 -3 76 -1 100 18 l27 21 0 163 c0 152 -1 164 -21 182 -25 22
-141 30 -177 12z"/>
<path d="M14280 4744 c-26 -18 -176 -153 -320 -289 -47 -44 -137 -127 -200
-185 -63 -58 -130 -120 -147 -138 l-33 -33 0 -244 c0 -241 0 -244 22 -259 26
-18 141 -22 182 -6 l26 10 0 202 0 202 73 68 c39 37 79 67 87 67 8 0 36 -33
62 -72 85 -132 318 -462 335 -474 11 -8 47 -13 97 -12 106 1 130 8 134 39 3
25 -10 46 -141 233 -110 157 -226 322 -273 391 l-47 68 89 82 c164 150 279
261 294 283 13 20 12 25 -6 50 -20 27 -25 28 -115 31 -75 2 -99 -1 -119 -14z"/>
<path d="M14895 4735 c-24 -24 -25 -28 -25 -184 l0 -160 28 -21 c23 -19 37
-21 99 -18 41 2 78 9 85 16 9 9 14 61 16 181 l3 169 -27 21 c-21 16 -41 21
-91 21 -55 0 -67 -4 -88 -25z"/>
<path d="M15526 4739 c-14 -11 -26 -24 -26 -28 0 -14 77 -124 321 -456 129
-176 288 -393 352 -482 65 -89 128 -169 140 -178 30 -21 174 -21 205 1 l22 15
0 550 0 550 -25 24 c-21 21 -33 25 -88 25 -50 0 -70 -5 -91 -21 l-26 -20 0
-370 c0 -203 -4 -369 -8 -369 -7 0 -59 70 -287 387 -11 15 -52 71 -90 123 -39
52 -95 128 -124 168 -71 97 -80 102 -172 102 -62 0 -81 -4 -103 -21z"/>
<path d="M17295 4736 c-87 -28 -104 -37 -186 -97 -65 -48 -141 -134 -173 -196
-26 -51 -58 -202 -58 -278 -2 -98 35 -240 81 -315 60 -99 166 -197 238 -220
21 -7 43 -16 48 -20 15 -11 106 -40 126 -40 37 0 49 27 49 114 0 95 -9 109
-76 124 -23 5 -62 23 -87 40 -50 35 -127 142 -127 176 0 12 -7 47 -15 78 -13
51 -13 65 1 125 19 87 59 168 104 213 20 20 71 53 115 75 l80 40 3 86 c2 69
-1 90 -13 103 -20 20 -23 19 -110 -8z"/>
<path d="M17547 4742 c-21 -23 -24 -159 -4 -184 6 -9 43 -31 80 -48 45 -21 91
-54 135 -96 l66 -65 85 3 c81 3 86 4 100 30 14 24 14 30 -2 63 -43 90 -153
202 -247 250 -30 16 -174 64 -191 65 -3 0 -13 -8 -22 -18z"/>
<path d="M18680 4751 c-8 -5 -35 -12 -60 -16 -99 -16 -203 -101 -241 -195 -57
-141 -5 -296 123 -368 62 -35 208 -89 287 -107 91 -21 185 -51 237 -77 47 -24
49 -26 52 -72 4 -66 -25 -97 -114 -121 -88 -24 -94 -32 -94 -118 0 -88 18
-122 59 -114 166 32 236 63 299 131 48 52 55 67 77 153 14 57 14 69 -1 133
-35 155 -128 218 -429 290 -207 50 -295 94 -295 150 0 42 33 75 99 99 33 12
67 32 76 44 22 31 20 139 -2 165 -22 25 -53 34 -73 23z"/>
<path d="M6841 4710 c-147 -60 -257 -176 -308 -322 -26 -77 -28 -94 -27 -228
0 -126 3 -154 23 -210 59 -164 155 -273 291 -331 97 -42 158 -45 178 -9 16 30
10 143 -8 165 -7 8 -39 29 -72 47 -68 36 -131 102 -161 168 -16 37 -20 67 -21
165 0 116 1 122 33 189 41 84 105 151 159 165 62 17 77 41 77 126 0 46 -5 78
-14 88 -20 25 -66 20 -150 -13z"/>
<path d="M18883 4729 c-14 -14 -18 -146 -5 -166 4 -7 36 -27 71 -44 64 -32 94
-66 116 -134 l10 -30 99 0 100 0 7 30 c6 21 1 50 -18 106 -37 110 -88 166
-189 208 -88 37 -172 50 -191 30z"/>
<path d="M4772 4264 c-22 -15 -22 -16 -22 -339 0 -377 -11 -345 119 -345 59 0
84 4 95 16 14 13 16 57 16 330 0 374 6 354 -113 354 -49 0 -80 -5 -95 -16z"/>
<path d="M14892 4264 c-22 -15 -22 -16 -22 -339 0 -377 -11 -345 119 -345 59
0 84 4 95 16 14 13 16 57 16 330 0 374 6 354 -113 354 -49 0 -80 -5 -95 -16z"/>
<path d="M17470 4249 c-35 -14 -40 -26 -40 -102 0 -59 3 -71 25 -92 24 -25 27
-25 195 -25 111 0 170 -4 170 -10 0 -25 -46 -97 -90 -141 -37 -37 -61 -52
-106 -64 -80 -23 -94 -41 -94 -126 0 -68 13 -114 34 -122 6 -3 48 4 92 15 69
17 92 28 169 86 142 108 195 197 240 407 21 99 10 160 -31 175 -33 13 -532 12
-564 -1z"/>
<path d="M7396 3979 c-14 -11 -33 -33 -41 -48 -30 -60 -100 -118 -161 -137
-33 -10 -65 -22 -71 -27 -16 -12 -18 -160 -3 -188 13 -23 27 -24 94 -3 97 30
213 95 267 149 53 54 129 183 129 222 0 33 -47 53 -123 53 -50 0 -70 -5 -91
-21z"/>
<path d="M18343 3981 c-23 -19 -31 -55 -14 -65 5 -3 12 -26 16 -51 4 -32 23
-70 59 -123 42 -61 65 -84 111 -110 32 -18 79 -37 104 -43 25 -6 54 -15 64
-20 21 -11 71 11 81 36 3 9 6 45 6 80 0 73 -9 87 -79 117 -61 26 -108 63 -116
90 -4 13 -16 42 -28 66 l-21 42 -80 0 c-64 -1 -86 -5 -103 -19z"/>
<path d="M15533 3970 c-23 -9 -23 -12 -23 -189 0 -211 -5 -201 112 -201 112 0
109 -6 109 199 1 116 -3 177 -11 185 -14 14 -157 19 -187 6z"/>
</g>
</svg>
